<?xml version="1.0" standalone="no"?>
<!DOCTYPE svg PUBLIC "-//W3C//DTD SVG 20010904//EN"
 "http://www.w3.org/TR/2001/REC-SVG-20010904/DTD/svg10.dtd">
<svg version="1.0" xmlns="http://www.w3.org/2000/svg"
 width="30.000000pt" height="30.000000pt" viewBox="0 0 100.000000 100.000000"
 preserveAspectRatio="xMidYMid meet">

<g transform="translate(0.000000,100.000000) scale(0.100000,-0.100000)"
fill="#ffffff" stroke="none">
<path d="M20 590 l0 -370 95 0 95 0 0 -90 0 -90 385 0 385 0 0 385 0 385 -80
0 -80 0 0 75 0 75 -400 0 -400 0 0 -370z m790 290 l0 -70 -300 0 -300 0 0
-290 0 -290 -90 0 -90 0 0 360 0 360 390 0 390 0 0 -70z m160 -455 l0 -375
-375 0 -375 0 0 375 0 375 375 0 375 0 0 -375z"/>
</g>
</svg>
