<?xml version="1.0" ?><svg width="512px" height="512px" viewBox="0 0 512 512" id="Layer_1" style="enable-background:new 0 0 512 512;" version="1.1" xml:space="preserve" xmlns="http://www.w3.org/2000/svg" xmlns:xlink="http://www.w3.org/1999/xlink"><style type="text/css">
	.st0{fill:#232020;}
</style><g><path class="st0" d="M341.7,211.7c-16.1-31-48.4-52.2-85.7-52.2c-37.2,0-69.6,21.2-85.7,52.2c-0.2,0.2-0.3,0.5-0.4,0.8   c-6.6,13.1-10.4,27.9-10.4,43.5c0,15.6,3.7,30.4,10.4,43.5c0.1,0.3,0.2,0.5,0.4,0.8c16.1,31,48.4,52.2,85.7,52.2   c37.2,0,69.6-21.2,85.7-52.2c0.2-0.2,0.3-0.5,0.4-0.8c6.6-13.1,10.4-27.9,10.4-43.5c0-15.6-3.7-30.4-10.4-43.5   C342,212.2,341.8,212,341.7,211.7z M336.6,294.8h-20.5c3.3-11,5.1-23,5.4-35.3h23.8C344.9,272.1,341.8,284,336.6,294.8z    M166.6,259.5h23.8c0.3,12.3,2.2,24.3,5.4,35.3h-20.5C170.2,284,167.1,272.1,166.6,259.5z M175.4,217.2h20.5   c-3.3,11-5.1,23-5.4,35.3h-23.8C167.1,239.9,170.2,228,175.4,217.2z M290.9,252.5c-0.2-12.3-1.1-24.3-2.8-35.3h20.7   c3.4,10.7,5.4,22.7,5.8,35.3H290.9z M259.5,344.6v-42.8h20.3C275.2,325.2,267.3,340.9,259.5,344.6z M232.2,301.8h20.3v42.8   C244.7,340.9,236.9,325.2,232.2,301.8z M252.5,167.4v42.8h-20.3C236.9,186.8,244.7,171.1,252.5,167.4z M279.8,210.2h-20.3v-42.8   C267.3,171.1,275.2,186.8,279.8,210.2z M252.5,217.2v35.3h-24.4c0.2-12.9,1.2-24.7,2.9-35.3H252.5z M252.5,259.5v35.3H231   c-1.7-10.5-2.7-22.4-2.9-35.3H252.5z M259.5,294.8v-35.3h24.4c-0.2,12.9-1.2,24.7-2.9,35.3H259.5z M259.5,252.5v-35.3H281   c1.7,10.5,2.7,22.4,2.9,35.3H259.5z M286.9,210.2c-1.4-7.6-3.2-14.7-5.4-21.1c-2.7-7.8-5.7-14.2-9-19c14.3,6.4,26.3,20.9,33.8,40   H286.9z M239.5,170.2c-3.3,4.8-6.4,11.1-9,19c-2.1,6.3-3.9,13.4-5.4,21.1h-19.4C213.2,191.1,225.2,176.6,239.5,170.2z M223.9,217.2   c-1.7,11-2.6,22.9-2.8,35.3h-23.7c0.3-12.6,2.3-24.5,5.8-35.3H223.9z M197.5,259.5h23.7c0.2,12.3,1.1,24.3,2.8,35.3h-20.7   C199.8,284,197.8,272.1,197.5,259.5z M225.1,301.8c1.4,7.6,3.2,14.7,5.4,21.1c2.7,7.8,5.7,14.2,9,19c-14.3-6.4-26.3-20.9-33.8-40   H225.1z M272.5,341.8c3.3-4.8,6.4-11.1,9-19c2.1-6.3,3.9-13.4,5.4-21.1h19.4C298.8,320.9,286.8,335.4,272.5,341.8z M288.1,294.8   c1.7-11,2.6-22.9,2.8-35.3h23.7c-0.3,12.6-2.3,24.5-5.8,35.3H288.1z M321.5,252.5c-0.3-12.3-2.2-24.3-5.4-35.3h20.5   c5.2,10.7,8.3,22.7,8.8,35.3H321.5z M332.8,210.2h-19c-2.9-7.9-6.6-15.3-11-21.9c-4-5.9-8.3-11-13-15.1   C307.8,180.6,322.9,193.7,332.8,210.2z M222.2,173.2c-4.7,4.2-9.1,9.2-13,15.1c-4.4,6.6-8.1,14-11,21.9h-19   C189.1,193.7,204.2,180.6,222.2,173.2z M179.2,301.8h19c2.9,7.9,6.6,15.3,11,21.9c3.9,5.9,8.3,11,13,15.1   C204.2,331.4,189.1,318.3,179.2,301.8z M289.8,338.8c4.7-4.2,9.1-9.2,13-15.1c4.4-6.6,8.1-14,11-21.9h19   C322.9,318.3,307.8,331.4,289.8,338.8z"/><path class="st0" d="M407.4,239.4l-18.4-2.1c-0.2-1.5-0.5-3.1-0.7-4.6l16.9-7.7l-1.4-5.6c-1.7-7-4-13.9-6.6-20.5l-2.2-5.4   l-18.2,3.7c-0.7-1.4-1.4-2.8-2.1-4.2l13.7-12.6l-3.1-4.9c-3.8-6.1-8.1-11.9-12.7-17.4l-3.7-4.4l-16.2,9.1c-1.1-1.1-2.2-2.2-3.3-3.3   l9.1-16.2l-4.4-3.7c-5.5-4.6-11.3-8.9-17.4-12.7l-4.9-3.1l-12.6,13.7c-1.4-0.7-2.8-1.4-4.2-2.1l3.7-18.2l-5.4-2.2   c-6.6-2.7-13.5-4.9-20.5-6.6l-5.6-1.4l-7.7,16.9c-1.5-0.3-3.1-0.5-4.6-0.7l-2.1-18.4l-5.8-0.4c-7-0.5-14.6-0.5-21.6,0l-5.8,0.4   l-2.1,18.4c-1.5,0.2-3.1,0.5-4.6,0.7l-7.8-16.9l-5.6,1.4c-7,1.7-13.9,4-20.5,6.6l-5.4,2.2l3.7,18.2c-1.4,0.7-2.8,1.4-4.2,2.1   l-12.6-13.7l-4.9,3.1c-6.1,3.8-12,8.1-17.4,12.7l-4.4,3.7l9.1,16.2c-1.1,1.1-2.2,2.2-3.3,3.3l-16.2-9.1l-3.7,4.4   c-4.6,5.5-8.9,11.4-12.7,17.4l-3.1,4.9l13.7,12.6c-0.7,1.4-1.4,2.8-2.1,4.2l-18.2-3.7l-2.2,5.4c-2.7,6.6-4.9,13.5-6.6,20.5   l-1.4,5.6l16.9,7.8c-0.3,1.5-0.5,3.1-0.7,4.6l-18.4,2.1l-0.4,5.8c-0.3,3.5-0.4,7.1-0.4,10.8c0,3.7,0.1,7.3,0.4,10.8l0.4,5.8   l18.4,2.1c0.2,1.5,0.5,3.1,0.7,4.6l-16.9,7.7l1.4,5.6c1.7,7,3.9,13.9,6.6,20.5l2.2,5.4l18.2-3.7c0.7,1.4,1.4,2.8,2.1,4.2   l-13.7,12.6l3.1,4.9c3.8,6.1,8.1,12,12.7,17.4l3.7,4.4l16.2-9.1c1.1,1.1,2.2,2.2,3.3,3.3l-9.1,16.2l4.4,3.7   c5.4,4.6,11.3,8.8,17.4,12.7l4.9,3.1l12.6-13.7c1.4,0.7,2.8,1.4,4.2,2.1l-3.6,18.2l5.4,2.2c6.6,2.7,13.5,4.9,20.5,6.6l5.6,1.4   l7.8-16.9c1.5,0.3,3.1,0.5,4.6,0.7l2.1,18.4l5.8,0.4c3.5,0.3,7.1,0.4,10.8,0.4c3.7,0,7.3-0.1,10.8-0.4l5.8-0.4l2.1-18.4   c1.5-0.2,3.1-0.5,4.6-0.7l7.7,16.9l5.6-1.4c7-1.7,13.9-3.9,20.5-6.6l5.4-2.2l-3.7-18.2c1.4-0.7,2.8-1.4,4.2-2.1l12.6,13.7l4.9-3.1   c6.1-3.8,12-8.1,17.4-12.7l4.4-3.7l-9.1-16.2c1.1-1.1,2.2-2.2,3.3-3.3l16.2,9.1l3.7-4.4c4.6-5.5,8.9-11.3,12.7-17.4l3.1-4.9   l-13.7-12.6c0.7-1.4,1.4-2.8,2.1-4.2l18.2,3.7l2.2-5.3c2.7-6.6,4.9-13.5,6.7-20.5l1.4-5.6l-16.9-7.7c0.3-1.5,0.5-3.1,0.7-4.6   l18.4-2.1l0.4-5.8c0.3-3.5,0.4-7.1,0.4-10.8c0-3.7-0.1-7.3-0.4-10.8L407.4,239.4z M394.2,260l-17.9,2.1l-0.5,5.6   c-0.4,4.7-1.2,9.5-2.2,14.2l-1.2,5.5l16.4,7.5c-0.7,2.6-1.6,5.1-2.5,7.6l-17.7-3.6l-2.3,5.2c-1.9,4.4-4.1,8.7-6.5,12.7l-2.9,4.9   l13.3,12.2c-1.5,2.2-3.1,4.4-4.7,6.5l-15.8-8.9l-3.7,4.2c-3.1,3.6-6.5,7-10.1,10.1l-4.2,3.7l8.9,15.8c-2.1,1.6-4.3,3.2-6.5,4.7   l-12.2-13.3l-4.9,2.9c-4.1,2.4-8.4,4.6-12.8,6.5l-5.2,2.3l3.6,17.7c-2.5,0.9-5,1.7-7.6,2.5l-7.5-16.4l-5.5,1.2   c-4.7,1-9.4,1.8-14.1,2.2l-5.6,0.5l-2.1,17.9c-2.6,0.1-5.4,0.1-8,0l-2.1-17.9l-5.6-0.5c-4.7-0.4-9.5-1.2-14.1-2.2l-5.5-1.2   l-7.5,16.4c-2.6-0.7-5.1-1.6-7.6-2.5l3.5-17.7l-5.2-2.3c-4.4-1.9-8.7-4.1-12.8-6.5l-4.9-2.9L178,370.1c-2.2-1.5-4.4-3.1-6.5-4.7   l8.9-15.7l-4.3-3.7c-3.5-3.1-6.9-6.5-10.1-10.1l-3.7-4.2l-15.7,8.8c-1.6-2.1-3.2-4.3-4.7-6.5l13.3-12.2l-2.9-4.9   c-2.4-4.1-4.6-8.4-6.5-12.8l-2.3-5.2l-17.7,3.6c-0.9-2.5-1.7-5-2.5-7.6l16.4-7.5l-1.2-5.5c-1-4.7-1.8-9.4-2.2-14.1l-0.5-5.6   l-17.9-2.1c0-1.3-0.1-2.7-0.1-4c0-1.3,0-2.7,0.1-4l17.9-2.1l0.5-5.6c0.4-4.7,1.2-9.5,2.2-14.1l1.2-5.5l-16.4-7.5   c0.7-2.6,1.6-5.1,2.5-7.6l17.7,3.6l2.3-5.2c1.9-4.4,4.1-8.7,6.5-12.8l2.9-4.9L141.9,178c1.5-2.2,3.1-4.4,4.7-6.5l15.7,8.8l3.7-4.2   c3.2-3.6,6.6-7,10.1-10.1l4.2-3.7l-8.8-15.7c2.1-1.6,4.3-3.2,6.5-4.7l12.2,13.3l4.9-2.9c4-2.4,8.3-4.6,12.8-6.5l5.2-2.3l-3.5-17.7   c2.5-0.9,5-1.7,7.6-2.5l7.5,16.4l5.5-1.2c4.7-1,9.4-1.8,14.1-2.2l5.6-0.5l2.1-17.9c2.6-0.1,5.4-0.1,8,0l2.1,17.9l5.6,0.5   c4.7,0.4,9.5,1.2,14.1,2.2l5.5,1.2l7.5-16.4c2.6,0.7,5.1,1.6,7.6,2.5l-3.6,17.7l5.2,2.3c4.4,1.9,8.7,4.1,12.8,6.5l4.9,2.9   l12.2-13.3c2.2,1.5,4.4,3.1,6.5,4.7l-8.8,15.7l4.2,3.7c3.6,3.2,7,6.6,10.1,10.1l3.7,4.3l15.7-8.9c1.6,2.1,3.2,4.3,4.7,6.5   l-13.3,12.2l2.9,4.9c2.4,4.1,4.6,8.4,6.5,12.8l2.2,5.2l17.7-3.6c0.9,2.5,1.7,5,2.5,7.6l-16.4,7.5l1.2,5.5c1,4.7,1.8,9.4,2.2,14.2   l0.5,5.6l17.9,2.1c0,1.3,0.1,2.6,0.1,4C394.2,257.3,394.2,258.7,394.2,260z"/><path class="st0" d="M370.1,235.3c-1.8-10.2-5-20.1-9.6-29.5c-0.8-1.7-1.6-3.3-2.4-4.8c-4.9-9.1-11-17.5-18.3-25.1   c-1.2-1.2-2.4-2.5-3.7-3.7c-7.5-7.2-15.9-13.3-25-18.2c-1.6-0.9-3.3-1.7-4.8-2.4c-9.4-4.5-19.3-7.7-29.5-9.6   c-1.9-0.4-3.7-0.6-5.3-0.8c-10.1-1.4-20.7-1.4-30.9,0c-1.7,0.2-3.4,0.5-5.3,0.8c-10.2,1.8-20.1,5.1-29.5,9.6   c-1.5,0.7-3,1.5-4.8,2.5c-9.1,4.9-17.5,11-25.1,18.2c-1.2,1.2-2.5,2.5-3.8,3.8c-7.2,7.5-13.3,16-18.2,25.1c-0.8,1.5-1.6,3-2.4,4.8   c-4.5,9.4-7.7,19.3-9.6,29.5c-0.3,1.9-0.6,3.6-0.8,5.3c-0.7,5.1-1,10.3-1,15.5c0,5.2,0.3,10.4,1,15.5c0.2,1.6,0.5,3.4,0.8,5.3   c1.8,10.2,5.1,20.1,9.6,29.4c0.8,1.6,1.6,3.2,2.5,4.8c4.9,9.1,11.1,17.6,18.2,25.1c1.2,1.3,2.5,2.6,3.8,3.8   c7.6,7.2,16,13.3,25,18.2c1.8,0.9,3.3,1.8,4.8,2.4c9.4,4.5,19.3,7.7,29.5,9.6c1.9,0.3,3.6,0.6,5.3,0.8c5.1,0.7,10.3,1,15.5,1   c5.2,0,10.4-0.3,15.5-1c1.6-0.2,3.4-0.5,5.3-0.8c10.3-1.9,20.2-5.1,29.4-9.6c1.6-0.8,3.2-1.6,4.8-2.5c9.1-4.9,17.6-11.1,25.1-18.2   c1.5-1.4,2.7-2.6,3.8-3.8c7.1-7.5,13.3-15.9,18.3-25.1c0.9-1.7,1.7-3.3,2.4-4.7c4.5-9.4,7.7-19.3,9.6-29.5c0.4-1.9,0.6-3.7,0.8-5.3   c0.7-5.1,1-10.3,1-15.5c0-5.1-0.3-10.4-1-15.5C370.7,238.8,370.4,237.1,370.1,235.3z M357,269.6l0,0.1c-0.2,1.4-0.4,2.8-0.7,4.5   l0,0c-1.6,9-4.4,17.7-8.4,25.9c-0.6,1.3-1.3,2.7-2.1,4.1c-4.4,8-9.8,15.5-16.1,22.1c-0.9,1-2,2-3.3,3.3c-6.6,6.3-14,11.7-22.1,16.1   c-1.4,0.7-2.8,1.5-4.2,2.1c-8.2,3.9-16.9,6.8-25.9,8.4c-1.7,0.3-3.2,0.5-4.5,0.7l-0.1,0c-8.9,1.2-18.2,1.2-27.3,0   c-1.5-0.2-3-0.4-4.6-0.7c-9-1.6-17.7-4.4-25.9-8.4c-1.3-0.6-2.6-1.3-4.1-2.1c-8-4.3-15.4-9.7-22-16c-1.1-1.1-2.2-2.2-3.3-3.3   c-6.3-6.6-11.7-14-16-22.1c-0.8-1.4-1.5-2.8-2.1-4.2c-4-8.2-6.8-16.9-8.4-25.9c-0.3-1.7-0.5-3.2-0.7-4.5l0-0.1   c-0.6-4.5-0.9-9.1-0.9-13.6c0-4.5,0.3-9.1,0.9-13.7c0.2-1.5,0.4-3,0.7-4.6c1.6-8.9,4.4-17.6,8.4-25.9c0.7-1.5,1.4-2.9,2.1-4.2   c4.3-8,9.7-15.4,16-22c1.1-1.2,2.3-2.3,3.4-3.4c6.6-6.3,14-11.7,22-16c1.6-0.8,2.9-1.5,4.2-2.1c8.2-4,16.9-6.8,25.9-8.4   c1.6-0.3,3.1-0.5,4.6-0.7c4.5-0.6,9.1-0.9,13.6-0.9c4.6,0,9.2,0.3,13.6,0.9l0.1,0c1.4,0.2,2.8,0.4,4.5,0.7c9,1.6,17.7,4.4,25.9,8.4   c1.3,0.6,2.7,1.3,4.1,2.1c8,4.3,15.4,9.7,22,16c1.1,1.1,2.3,2.3,3.4,3.4c6.3,6.6,11.7,14.1,16,22c0.7,1.3,1.4,2.7,2.1,4.2   c4,8.3,6.8,17,8.4,25.9c0.3,1.6,0.5,3.1,0.7,4.6c0.6,4.5,0.9,9.1,0.9,13.6C357.9,260.6,357.6,265.2,357,269.6z"/><path class="st0" d="M229.6,63.3c0.7,0,1.4-0.2,2-0.5l4.7-2.7c4.6,5.7,11.7,9.4,19.7,9.4c7.9,0,15-3.7,19.7-9.4l4.7,2.7   c0.6,0.4,1.3,0.5,2,0.5c1.4,0,2.7-0.7,3.4-2c1.1-1.9,0.4-4.3-1.5-5.4l-4.7-2.7c1.1-2.8,1.7-5.9,1.7-9.1c0-14-11.4-25.3-25.3-25.3   s-25.3,11.4-25.3,25.3c0,3.2,0.6,6.2,1.7,9.1l-4.7,2.7c-1.9,1.1-2.6,3.5-1.5,5.4C226.9,62.5,228.3,63.3,229.6,63.3z M256,25.7   c10.1,0,18.3,8.2,18.3,18.3c0,2.7-0.6,5.3-1.7,7.6c-0.5,0.3-0.9,0.7-1.2,1.3c-0.3,0.5-0.5,1.1-0.5,1.7c-3.3,4.7-8.8,7.7-14.9,7.7   c-6.2,0-11.6-3.1-14.9-7.7c0-0.6-0.2-1.1-0.5-1.7c-0.3-0.5-0.7-1-1.2-1.3c-1.1-2.3-1.7-4.9-1.7-7.6C237.7,34,245.9,25.7,256,25.7z"/><path class="st0" d="M171.5,96.8c0.7,0,1.4-0.2,2-0.5l14.5-8.4c1.9-1.1,2.6-3.5,1.5-5.4s-3.5-2.6-5.4-1.5l-14.5,8.4   c-1.9,1.1-2.6,3.5-1.5,5.4C168.8,96.1,170.1,96.8,171.5,96.8z"/><path class="st0" d="M142.4,113.6c0.7,0,1.4-0.2,2-0.5l14.5-8.4c1.9-1.1,2.6-3.5,1.5-5.4s-3.5-2.6-5.4-1.5l-14.5,8.4   c-1.9,1.1-2.6,3.5-1.5,5.4C139.7,112.9,141,113.6,142.4,113.6z"/><path class="st0" d="M113.4,130.4c0.7,0,1.4-0.2,2-0.5l14.5-8.4c1.9-1.1,2.6-3.5,1.5-5.4c-1.1-1.9-3.5-2.6-5.4-1.5l-14.5,8.4   c-1.9,1.1-2.6,3.5-1.5,5.4C110.6,129.7,112,130.4,113.4,130.4z"/><path class="st0" d="M200.6,80c0.7,0,1.4-0.2,2-0.5l14.5-8.4c1.9-1.1,2.6-3.5,1.5-5.4c-1.1-1.9-3.5-2.6-5.4-1.5l-14.5,8.4   c-1.9,1.1-2.6,3.5-1.5,5.4C197.9,79.3,199.2,80,200.6,80z"/><path class="st0" d="M411.2,138.3l4.7,2.7c-2.6,6.9-2.3,14.9,1.7,21.7c4,6.9,10.7,11.2,18,12.3v5.4c0,2.2,1.8,4,4,4s4-1.8,4-4V175   c3-0.5,5.9-1.5,8.7-3.1c12.1-7,16.3-22.5,9.3-34.6c-7-12.1-22.5-16.3-34.6-9.3c-2.8,1.6-5.1,3.6-7,6l-4.7-2.7   c-1.9-1.1-4.3-0.4-5.4,1.5C408.6,134.7,409.3,137.2,411.2,138.3z M430.4,134.2c8.8-5.1,20-2,25,6.7c5.1,8.8,2,20-6.7,25   c-2.4,1.4-4.9,2.1-7.5,2.4c-0.5-0.2-1.1-0.4-1.7-0.4c-0.6,0-1.2,0.1-1.7,0.4c-5.7-0.5-11.1-3.7-14.2-9.1   c-3.1-5.3-3.1-11.6-0.8-16.8c0.5-0.3,0.9-0.8,1.2-1.3c0.3-0.5,0.5-1.1,0.5-1.7C426.1,137.3,428,135.5,430.4,134.2z"/><path class="st0" d="M324,87.9l14.5,8.4c0.6,0.4,1.3,0.5,2,0.5c1.4,0,2.7-0.7,3.4-2c1.1-1.9,0.4-4.3-1.5-5.4L328,81   c-1.9-1.1-4.3-0.4-5.4,1.5C321.4,84.4,322.1,86.8,324,87.9z"/><path class="st0" d="M353.1,104.7l14.5,8.4c0.6,0.4,1.3,0.5,2,0.5c1.4,0,2.7-0.7,3.4-2c1.1-1.9,0.4-4.3-1.5-5.4L357,97.8   c-1.9-1.1-4.3-0.4-5.4,1.5S351.2,103.6,353.1,104.7z"/><path class="st0" d="M382.1,121.5l14.5,8.4c0.6,0.4,1.3,0.5,2,0.5c1.4,0,2.7-0.7,3.4-2c1.1-1.9,0.4-4.3-1.5-5.4l-14.5-8.4   c-1.9-1.1-4.3-0.4-5.4,1.5C379.6,117.9,380.2,120.4,382.1,121.5z"/><path class="st0" d="M294.9,71.1l14.5,8.4c0.6,0.4,1.3,0.5,2,0.5c1.4,0,2.7-0.7,3.4-2c1.1-1.9,0.4-4.3-1.5-5.4l-14.5-8.4   c-1.9-1.1-4.3-0.4-5.4,1.5C292.4,67.6,293,70,294.9,71.1z"/><path class="st0" d="M443.5,230.8c0-2.2-1.8-4-4-4s-4,1.8-4,4v16.8c0,2.2,1.8,4,4,4s4-1.8,4-4V230.8z"/><path class="st0" d="M439.5,294c-2.2,0-4,1.8-4,4v16.8c0,2.2,1.8,4,4,4s4-1.8,4-4V298C443.5,295.8,441.7,294,439.5,294z"/><path class="st0" d="M443.5,264.4c0-2.2-1.8-4-4-4s-4,1.8-4,4v16.8c0,2.2,1.8,4,4,4s4-1.8,4-4V264.4z"/><path class="st0" d="M443.5,197.2c0-2.2-1.8-4-4-4s-4,1.8-4,4V214c0,2.2,1.8,4,4,4s4-1.8,4-4V197.2z"/><path class="st0" d="M280.4,449.3l-4.7,2.7c-4.6-5.7-11.7-9.4-19.7-9.4s-15,3.7-19.7,9.4l-4.7-2.7c-1.9-1.1-4.3-0.4-5.4,1.5   c-1.1,1.9-0.4,4.3,1.5,5.4l4.7,2.7c-1.1,2.8-1.7,5.9-1.7,9.1c0,14,11.4,25.3,25.3,25.3s25.3-11.4,25.3-25.3c0-3.2-0.6-6.2-1.7-9.1   l4.7-2.7c1.9-1.1,2.6-3.5,1.5-5.4C284.7,448.8,282.3,448.2,280.4,449.3z M256,486.3c-10.1,0-18.3-8.2-18.3-18.3   c0-2.7,0.6-5.3,1.7-7.6c0.5-0.3,0.9-0.8,1.2-1.3c0.3-0.5,0.5-1.1,0.5-1.7c3.3-4.7,8.8-7.7,14.9-7.7s11.6,3.1,14.9,7.7   c0,0.6,0.2,1.1,0.5,1.7c0.3,0.5,0.7,1,1.2,1.3c1.1,2.3,1.7,4.9,1.7,7.6C274.3,478,266.1,486.3,256,486.3z"/><path class="st0" d="M338.5,415.7l-14.5,8.4c-1.9,1.1-2.6,3.5-1.5,5.4c0.7,1.3,2.1,2,3.4,2c0.7,0,1.4-0.2,2-0.5l14.5-8.4   c1.9-1.1,2.6-3.5,1.5-5.4C342.9,415.3,340.4,414.6,338.5,415.7z"/><path class="st0" d="M367.6,398.9l-14.5,8.4c-1.9,1.1-2.6,3.5-1.5,5.4c0.7,1.3,2.1,2,3.4,2c0.7,0,1.4-0.2,2-0.5l14.5-8.4   c1.9-1.1,2.6-3.5,1.5-5.4C371.9,398.5,369.5,397.8,367.6,398.9z"/><path class="st0" d="M396.7,382.1l-14.5,8.4c-1.9,1.1-2.6,3.5-1.5,5.4c0.7,1.3,2.1,2,3.4,2c0.7,0,1.4-0.2,2-0.5l14.5-8.4   c1.9-1.1,2.6-3.5,1.5-5.4S398.6,381,396.7,382.1z"/><path class="st0" d="M309.4,432.5l-14.5,8.4c-1.9,1.1-2.6,3.5-1.5,5.4c0.7,1.3,2.1,2,3.4,2c0.7,0,1.4-0.2,2-0.5l14.5-8.4   c1.9-1.1,2.6-3.5,1.5-5.4C313.8,432,311.3,431.4,309.4,432.5z"/><path class="st0" d="M100.8,373.7l-4.7-2.7c2.6-6.9,2.3-14.9-1.7-21.7c-4-6.9-10.7-11.2-18-12.3v-5.4c0-2.2-1.8-4-4-4s-4,1.8-4,4   v5.4c-3,0.5-5.9,1.5-8.7,3.1c-12.1,7-16.3,22.5-9.3,34.6c4.7,8.1,13.2,12.7,22,12.7c4.3,0,8.6-1.1,12.6-3.4c2.8-1.6,5.1-3.6,7-6   l4.7,2.7c0.6,0.4,1.3,0.5,2,0.5c1.4,0,2.7-0.7,3.4-2C103.4,377.3,102.7,374.8,100.8,373.7z M81.6,377.8c-8.8,5.1-20,2-25-6.7   c-5.1-8.8-2-20,6.7-25c2.4-1.4,4.9-2.1,7.5-2.4c0.5,0.2,1.1,0.4,1.7,0.4c0.6,0,1.2-0.1,1.7-0.4c5.7,0.5,11.1,3.7,14.2,9.1   c3.1,5.3,3.2,11.6,0.8,16.8c-0.5,0.3-0.9,0.7-1.2,1.3c-0.3,0.5-0.5,1.1-0.5,1.7C85.9,374.6,84,376.5,81.6,377.8z"/><path class="st0" d="M188,424.1l-14.5-8.4c-1.9-1.1-4.3-0.4-5.4,1.5s-0.4,4.3,1.5,5.4L184,431c0.6,0.4,1.3,0.5,2,0.5   c1.4,0,2.7-0.7,3.4-2C190.6,427.6,189.9,425.2,188,424.1z"/><path class="st0" d="M159,407.3l-14.5-8.4c-1.9-1.1-4.3-0.4-5.4,1.5c-1.1,1.9-0.4,4.3,1.5,5.4l14.5,8.4c0.6,0.4,1.3,0.5,2,0.5   c1.4,0,2.7-0.7,3.4-2C161.5,410.8,160.9,408.4,159,407.3z"/><path class="st0" d="M217.1,440.9l-14.5-8.4c-1.9-1.1-4.3-0.4-5.4,1.5c-1.1,1.9-0.4,4.3,1.5,5.4l14.5,8.4c0.6,0.4,1.3,0.5,2,0.5   c1.4,0,2.7-0.7,3.4-2C219.7,444.4,219,442,217.1,440.9z"/><path class="st0" d="M129.9,390.5l-14.5-8.4c-1.9-1.1-4.3-0.4-5.4,1.5c-1.1,1.9-0.4,4.3,1.5,5.4l14.5,8.4c0.6,0.4,1.3,0.5,2,0.5   c1.4,0,2.7-0.7,3.4-2C132.4,394.1,131.8,391.6,129.9,390.5z"/><path class="st0" d="M76.4,264.4c0-2.2-1.8-4-4-4s-4,1.8-4,4v16.8c0,2.2,1.8,4,4,4s4-1.8,4-4V264.4z"/><path class="st0" d="M72.5,294c-2.2,0-4,1.8-4,4v16.8c0,2.2,1.8,4,4,4s4-1.8,4-4V298C76.4,295.8,74.7,294,72.5,294z"/><path class="st0" d="M76.4,230.8c0-2.2-1.8-4-4-4s-4,1.8-4,4v16.8c0,2.2,1.8,4,4,4s4-1.8,4-4V230.8z"/><path class="st0" d="M76.4,197.3c0-2.2-1.8-4-4-4s-4,1.8-4,4v16.8c0,2.2,1.8,4,4,4s4-1.8,4-4V197.3z"/><path class="st0" d="M59.8,172c2.8,1.6,5.7,2.6,8.7,3.1v5.5c0,2.2,1.8,4,4,4s4-1.8,4-4V175c7.3-1.2,14-5.5,18-12.3   c4-6.9,4.3-14.8,1.7-21.7l4.7-2.7c1.9-1.1,2.6-3.5,1.5-5.4s-3.5-2.6-5.4-1.5l-4.7,2.7c-1.9-2.3-4.2-4.4-7-6   c-12.1-7-27.6-2.8-34.6,9.3S47.7,165,59.8,172z M56.6,140.9c3.4-5.9,9.6-9.2,15.9-9.2c3.1,0,6.3,0.8,9.1,2.5   c2.4,1.4,4.3,3.2,5.8,5.3c0,0.6,0.2,1.1,0.5,1.7c0.3,0.5,0.7,1,1.2,1.3c2.4,5.2,2.3,11.5-0.8,16.8c-3.1,5.3-8.5,8.5-14.2,9.1   c-0.5-0.2-1.1-0.4-1.7-0.4c-0.6,0-1.2,0.1-1.7,0.4c-2.6-0.2-5.1-1-7.5-2.4C54.5,160.8,51.5,149.6,56.6,140.9z"/><path class="st0" d="M452.2,340c-2.8-1.6-5.7-2.6-8.7-3.1v-5.4c0-2.2-1.8-4-4-4s-4,1.8-4,4v5.4c-7.3,1.2-14,5.5-18,12.3   c-4,6.9-4.3,14.8-1.7,21.7l-4.7,2.7c-1.9,1.1-2.6,3.5-1.5,5.4c0.7,1.3,2.1,2,3.4,2c0.7,0,1.4-0.2,2-0.5l4.7-2.7   c1.9,2.3,4.2,4.4,7,6c4,2.3,8.3,3.4,12.6,3.4c8.8,0,17.3-4.5,22-12.7C468.5,362.5,464.3,347,452.2,340z M455.4,371.1   c-5.1,8.8-16.3,11.8-25,6.7c-2.4-1.4-4.3-3.2-5.8-5.3c0-0.6-0.2-1.1-0.5-1.7c-0.3-0.5-0.7-0.9-1.2-1.3c-2.4-5.2-2.3-11.5,0.8-16.8   c3.1-5.3,8.5-8.5,14.2-9.1c0.5,0.2,1.1,0.4,1.7,0.4c0.6,0,1.2-0.2,1.7-0.4c2.5,0.2,5.1,1,7.4,2.4   C457.5,351.2,460.5,362.4,455.4,371.1z"/></g></svg>