<svg width="1440" height="13000" viewBox="0 0 1440 13000" fill="none" xmlns="http://www.w3.org/2000/svg">
<rect width="1440" height="13000" fill="#111111"/>
<path d="M4787.8 9666.39C4787.8 8696.99 4585.36 7568.19 4043.26 6862.74C3504.67 6161.85 2644.47 5916.08 1905.9 5916.08C1187.94 5916.08 482.897 6192.13 -32.9012 6862.74C-592.759 7590.56 -976 8628.54 -976 9666.39C-976 10680.8 -566.646 11472.6 -32.9012 12167.2C504.262 12866.2 1120.24 13416.7 1905.9 13416.7C2706.38 13416.7 3484.35 12895.1 4043.26 12167.2C4558.3 11496.3 4787.8 10605.3 4787.8 9666.39Z" stroke="#0390D5" stroke-opacity="0.5" stroke-width="5" stroke-miterlimit="10"/>
<path d="M1972.09 12974.8C1333.03 12970.7 748.773 12349.4 277.318 11735.3C-184.735 11133.4 -646.884 10396.1 -647.834 9565.44C-648.878 8646.95 -254.338 7604.4 277.413 6913.15C731.491 6323.11 1384.79 6152.22 1972.09 6156.05C2609.62 6160.12 3474.85 6253.91 3983.34 6912.66C4496.1 7577.21 4588.78 8718.25 4592 9565.44C4594.95 10337.6 4432.19 11149.8 3982.96 11735.3C3454.34 12424.1 2667.07 12979.1 1972.09 12974.8Z" stroke="#4A3AFF" stroke-opacity="0.5" stroke-width="5" stroke-miterlimit="10"/>
<path d="M4507.11 9295.19C4501.61 8543.89 4445.39 7488.86 3976.41 6881.52C3513.88 6282.58 2708.65 6231.67 2149.18 6226.6C945.519 6215.98 -218.446 7822.74 -208.665 9295.07C-204.013 10011.8 231.739 10689 641.187 11221.8C1060.61 11767.7 1599.1 12354.6 2149.18 12363.5C3223.6 12381 4518.51 10845 4507.11 9295.19Z" stroke="#4A3AFF" stroke-opacity="0.5" stroke-width="5" stroke-miterlimit="10"/>
<path d="M2412.58 11620.9C1923.85 11619.8 1428.56 11112.4 1057 10628.9C688.286 10148.9 320.713 9528.49 316.345 8893.34C308.179 7602.54 1336.26 6152.96 2412.3 6165.81C2910.91 6171.86 3612.73 6239.95 4021.13 6771.3C4433.9 7308.33 4503.41 8226.57 4508.25 8893.34C4518.51 10278.1 3369.17 11623.1 2412.58 11620.9Z" stroke="#0390D5" stroke-opacity="0.5" stroke-width="5" stroke-miterlimit="10"/>
<path d="M4571.4 8397.71C4569.41 7803.47 4468.37 7049.57 4113.62 6588.54C3758.86 6127.5 3189.23 6017.16 2736.76 6011.1C1772.39 5998.74 900.987 7215.65 902.886 8397.71C904.595 9476.22 1920.9 10782.6 2736.76 10784.2C3619.09 10786.5 4575.96 9635.5 4571.4 8397.71Z" stroke="#4A3AFF" stroke-opacity="0.5" stroke-width="5" stroke-miterlimit="10"/>
<path d="M4659.61 5465.05C4400.48 5132.9 3850.69 5427.98 3567.62 5552.66C3133.96 5744.69 2713.02 5983.55 2288 6204.61C1609.16 6557.65 734.339 7091.46 -14.4805 6839.14" stroke="#4A3AFF" stroke-opacity="0.5" stroke-width="5" stroke-miterlimit="10"/>
<path d="M4659.61 5465.05C4242.76 5372.99 3716.23 5818.33 3371.83 6061.39C2861.06 6421.84 2366.44 6821.22 1870.58 7213.55C1366.27 7612.55 861.675 8014.65 338.375 8370.65C-37.6489 8626.43 -482.895 8950.68 -919.406 8963.78" stroke="#0390D5" stroke-opacity="0.5" stroke-width="5" stroke-miterlimit="10"/>
<path d="M4659.61 5465.05C4199.55 5733.94 3795.52 6255.89 3414.74 6674.92C2928.38 7209.84 2450.66 7758 1970.85 8302.81C1119.86 9269 271.62 10317.6 -690.09 11098.2" stroke="#0390D5" stroke-opacity="0.5" stroke-width="5" stroke-miterlimit="10"/>
<path d="M4659.61 5465.05C4019.9 6743.99 3233.38 7919.13 2513.24 9121.08C1806.2 10301.9 1090.04 11477.8 420.32 12695.7" stroke="#0390D5" stroke-opacity="0.5" stroke-width="5" stroke-miterlimit="10"/>
<path d="M4787.8 5094.88C4787.8 4125.48 4585.36 2996.68 4043.26 2291.23C3504.67 1590.35 2644.47 1344.57 1905.9 1344.57C1187.94 1344.57 482.897 1620.62 -32.9012 2291.23C-592.759 3019.05 -976 4057.03 -976 5094.88C-976 6109.26 -566.646 6901.09 -32.9012 7595.67C504.262 8294.7 1120.24 8845.2 1905.9 8845.2C2706.38 8845.2 3484.35 8323.61 4043.26 7595.67C4558.3 6924.81 4787.8 6033.76 4787.8 5094.88Z" stroke="#0390D5" stroke-opacity="0.5" stroke-width="5" stroke-miterlimit="10"/>
<path d="M1972.09 8403.31C1333.03 8399.24 748.773 7777.93 277.318 7163.79C-184.735 6561.89 -646.884 5824.56 -647.834 4993.93C-648.878 4075.44 -254.338 3032.89 277.413 2341.64C731.491 1751.6 1384.79 1580.71 1972.09 1584.54C2609.62 1588.62 3474.85 1682.4 3983.34 2341.15C4496.1 3005.7 4588.78 4146.74 4592 4993.93C4594.95 5766.11 4432.19 6578.33 3982.96 7163.79C3454.34 7852.57 2667.07 8407.64 1972.09 8403.31Z" stroke="#4A3AFF" stroke-opacity="0.5" stroke-width="5" stroke-miterlimit="10"/>
<path d="M4507.11 4723.68C4501.61 3972.38 4445.39 2917.35 3976.41 2310.01C3513.88 1711.07 2708.65 1660.16 2149.18 1655.09C945.519 1644.47 -218.446 3251.23 -208.665 4723.56C-204.013 5440.26 231.739 6117.54 641.187 6650.24C1060.61 7196.17 1599.1 7783.12 2149.18 7792.02C3223.6 7809.44 4518.51 6273.48 4507.11 4723.68Z" stroke="#4A3AFF" stroke-opacity="0.5" stroke-width="5" stroke-miterlimit="10"/>
<path d="M2412.58 7049.37C1923.85 7048.26 1428.56 6540.88 1057 6057.36C688.286 5577.42 320.713 4956.98 316.345 4321.83C308.179 3031.03 1336.26 1581.45 2412.3 1594.3C2910.91 1600.35 3612.73 1668.44 4021.13 2199.79C4433.9 2736.82 4503.41 3655.06 4508.25 4321.83C4518.51 5706.55 3369.17 7051.59 2412.58 7049.37Z" stroke="#0390D5" stroke-opacity="0.5" stroke-width="5" stroke-miterlimit="10"/>
<path d="M4571.4 3826.2C4569.41 3231.96 4468.37 2478.06 4113.62 2017.03C3758.86 1555.99 3189.23 1445.65 2736.76 1439.59C1772.39 1427.23 900.987 2644.14 902.886 3826.2C904.595 4904.71 1920.9 6211.08 2736.76 6212.69C3619.09 6215.03 4575.96 5063.99 4571.4 3826.2Z" stroke="#4A3AFF" stroke-opacity="0.5" stroke-width="5" stroke-miterlimit="10"/>
<path d="M4659.61 893.542C4400.48 561.389 3850.69 856.471 3567.62 981.152C3133.96 1173.18 2713.02 1412.04 2288 1633.1C1609.16 1986.14 734.339 2519.96 -14.4805 2267.63" stroke="#4A3AFF" stroke-opacity="0.5" stroke-width="5" stroke-miterlimit="10"/>
<path d="M4659.61 893.54C4242.76 801.481 3716.23 1246.82 3371.83 1489.88C2861.06 1850.33 2366.44 2249.71 1870.58 2642.04C1366.27 3041.04 861.675 3443.14 338.375 3799.14C-37.6489 4054.93 -482.895 4379.17 -919.406 4392.27" stroke="#0390D5" stroke-opacity="0.5" stroke-width="5" stroke-miterlimit="10"/>
<path d="M4659.61 893.543C4199.55 1162.43 3795.52 1684.38 3414.74 2103.41C2928.38 2638.34 2450.66 3186.49 1970.85 3731.3C1119.86 4697.49 271.62 5746.09 -690.09 6526.68" stroke="#0390D5" stroke-opacity="0.5" stroke-width="5" stroke-miterlimit="10"/>
<path d="M4659.61 893.543C4019.9 2172.48 3233.38 3347.62 2513.24 4549.57C1806.2 5730.4 1090.04 6906.28 420.32 8124.17" stroke="#0390D5" stroke-opacity="0.5" stroke-width="5" stroke-miterlimit="10"/>
</svg>
